<svg id="Layer_1" data-name="Layer 1" xmlns="http://www.w3.org/2000/svg" viewBox="0 0 113.39 177.02"><defs><style>.cls-1{fill:#fff;}</style></defs><title>logo-white</title><path class="cls-1" d="M77.9,177H56.29c-11.83,0-27.33.41-38.34-6.12C-.61,159.88,0,139.28,0,124.4V34.26H35.49v91.57c0,4.28,0,10,2.65,13,3.67,4.28,13.25,3.87,20.18,3.87H77.9Z"/><path class="cls-1" d="M35.48,0H57.1C68.93,0,84.43-.4,95.44,6.12c18.56,11,17.94,31.61,17.94,46.5v90.13H77.9V51.19c0-4.28,0-10-2.65-13C71.58,33.86,62,34.26,55.06,34.26H35.48Z"/></svg>